<svg width="22" height="23" viewBox="0 0 22 23" fill="none" xmlns="http://www.w3.org/2000/svg">
<path d="M18.1832 1.84613H3.93104C2.80658 1.84613 1.89502 2.81503 1.89502 4.01023V19.159C1.89502 20.3542 2.80658 21.3231 3.93104 21.3231H18.1832C19.3076 21.3231 20.2192 20.3542 20.2192 19.159V4.01023C20.2192 2.81503 19.3076 1.84613 18.1832 1.84613Z" fill="#D07E01" stroke="#D07E01" stroke-width="2" stroke-linecap="round" stroke-linejoin="round"/>
<path d="M9.76299 5.69294L5.09666 14.5149C5.00045 14.7035 4.94955 14.9175 4.94901 15.1353C4.94847 15.3532 4.99832 15.5675 5.09359 15.7567C5.18887 15.946 5.32625 16.1038 5.49207 16.2143C5.65788 16.3248 5.84636 16.3842 6.03874 16.3865H15.3714C15.5638 16.3842 15.7522 16.3248 15.9181 16.2143C16.0839 16.1038 16.2213 15.946 16.3165 15.7567C16.4118 15.5675 16.4617 15.3532 16.4611 15.1353C16.4606 14.9175 16.4097 14.7035 16.3135 14.5149L11.6471 5.69294C11.5489 5.50958 11.4106 5.35798 11.2456 5.25277C11.0806 5.14756 10.8944 5.09229 10.7051 5.09229C10.5157 5.09229 10.3295 5.14756 10.1645 5.25277C9.99949 5.35798 9.8612 5.50958 9.76299 5.69294V5.69294Z" stroke="white" stroke-linecap="round" stroke-linejoin="round"/>
<path d="M10.7051 8.89978V11.3954" stroke="white" stroke-linecap="round" stroke-linejoin="round"/>
<path d="M10.7051 13.891H10.711" stroke="white" stroke-linecap="round" stroke-linejoin="round"/>
</svg>
