<svg width="22" height="22" viewBox="0 0 22 22" fill="none" xmlns="http://www.w3.org/2000/svg">
<path d="M18.1832 1.16922H3.93104C2.80658 1.16922 1.89502 2.13812 1.89502 3.33332V18.482C1.89502 19.6772 2.80658 20.6461 3.93104 20.6461H18.1832C19.3076 20.6461 20.2192 19.6772 20.2192 18.482V3.33332C20.2192 2.13812 19.3076 1.16922 18.1832 1.16922Z" fill="#DE5F5F" stroke="#DE5F5F" stroke-width="2" stroke-linecap="round" stroke-linejoin="round"/>
<path d="M11.9176 11.6214H10.2477V14.4974H9.30534V7.38805H11.6589C12.4596 7.38805 13.0749 7.57034 13.5046 7.93492C13.9375 8.2995 14.154 8.8301 14.154 9.52672C14.154 9.96943 14.0335 10.3552 13.7926 10.6839C13.555 11.0127 13.223 11.2585 12.7966 11.4212L14.4665 14.4388V14.4974H13.4606L11.9176 11.6214ZM10.2477 10.8548H11.6882C12.1537 10.8548 12.5231 10.7344 12.7966 10.4935C13.0732 10.2526 13.2116 9.93036 13.2116 9.52672C13.2116 9.08727 13.0798 8.75035 12.8161 8.51598C12.5557 8.2816 12.1781 8.16279 11.6833 8.15953H10.2477V10.8548Z" fill="white"/>
</svg>
